<svg width="128" height="128" viewBox="0 0 128 128" fill="none" xmlns="http://www.w3.org/2000/svg" aria-hidden="true">
  <path d="M22 28C22 21.3726 27.3726 16 34 16H90C96.6274 16 102 21.3726 102 28V42C102 48.6274 96.6274 54 90 54H34C27.3726 54 22 48.6274 22 42V28Z" stroke="black" stroke-width="8" stroke-linecap="round" stroke-linejoin="round"/>
  <path d="M74 54V72C74 77.5228 78.4772 82 84 82H92C97.5228 82 102 86.4772 102 92V108" stroke="black" stroke-width="8" stroke-linecap="round" stroke-linejoin="round"/>
  <path d="M56 74L38 92" stroke="black" stroke-width="8" stroke-linecap="round"/>
  <path d="M34 96L52 114" stroke="black" stroke-width="8" stroke-linecap="round"/>
  <path d="M30 100L48 118" stroke="black" stroke-width="8" stroke-linecap="round"/>
</svg>
